<svg xmlns="http://www.w3.org/2000/svg" viewBox="0 0 24 24">
  <!-- Dark navy background matching the navbar -->
  <rect width="24" height="24" rx="4" fill="#1e1b4b"/>
  <!-- Main four-pointed star (the large sparkle) — filled gold -->
  <path d="M9.937 15.5A2 2 0 0 0 8.5 14.063l-6.135-1.582a.5.5 0 0 1 0-.962L8.5 9.936A2 2 0 0 0 9.937 8.5l1.582-6.135a.5.5 0 0 1 .963 0L14.063 8.5A2 2 0 0 0 15.5 9.937l6.135 1.581a.5.5 0 0 1 0 .964L15.5 14.063a2 2 0 0 0-1.437 1.437l-1.582 6.135a.5.5 0 0 1-.963 0z"
        fill="#F5B731"/>
  <!-- Small cross top-right -->
  <line x1="20" y1="3" x2="20" y2="7" stroke="#F5B731" stroke-width="1.5" stroke-linecap="round"/>
  <line x1="18" y1="5" x2="22" y2="5" stroke="#F5B731" stroke-width="1.5" stroke-linecap="round"/>
  <!-- Small cross bottom-left -->
  <line x1="4" y1="17" x2="4" y2="19" stroke="#F5B731" stroke-width="1.5" stroke-linecap="round"/>
  <line x1="3" y1="18" x2="5" y2="18" stroke="#F5B731" stroke-width="1.5" stroke-linecap="round"/>
</svg>
